<svg width="40" height="40" viewBox="0 0 40 40" fill="none" xmlns="http://www.w3.org/2000/svg">
<path fill-rule="evenodd" clip-rule="evenodd" d="M18.9414 2.15409C19.6393 2.00577 20.3607 2.00577 21.0586 2.15409C21.8474 2.32176 22.5894 2.75051 24.0732 3.60721L32.0557 8.21561C33.5396 9.07237 34.2817 9.50106 34.8213 10.1004C35.2986 10.6305 35.6594 11.255 35.8799 11.9334C36.1291 12.7004 36.1289 13.5577 36.1289 15.2713V24.4881C36.1289 26.2013 36.129 27.0581 35.8799 27.825C35.6594 28.5036 35.2987 29.1287 34.8213 29.659C34.2817 30.2583 33.5396 30.687 32.0557 31.5437L24.0732 36.1521C22.5894 37.0088 21.8474 37.4376 21.0586 37.6053C20.3607 37.7536 19.6393 37.7536 18.9414 37.6053C18.1526 37.4376 17.4106 37.0088 15.9268 36.1521L7.94434 31.5437C6.46037 30.687 5.71834 30.2583 5.17871 29.659C4.7013 29.1287 4.3406 28.5036 4.12012 27.825C3.87104 27.0581 3.87109 26.2013 3.87109 24.4881V15.2713C3.87109 13.5577 3.8709 12.7004 4.12012 11.9334C4.34061 11.255 4.70141 10.6305 5.17871 10.1004C5.71834 9.50106 6.46038 9.07237 7.94434 8.21561L15.9268 3.60721C17.4106 2.75052 18.1526 2.32176 18.9414 2.15409ZM17.623 8.28299C17.1481 8.30792 16.6836 8.4323 16.2598 8.64823C15.7807 8.89231 15.3771 9.29653 14.5693 10.1043L10.2246 14.449C9.41697 15.2567 9.01266 15.6605 8.76855 16.1394C8.55265 16.5632 8.42827 17.0278 8.40332 17.5027C8.37518 18.0396 8.52272 18.5918 8.81836 19.6951L10.4092 25.6306C10.7048 26.7338 10.8528 27.2853 11.1455 27.7361C11.4046 28.1351 11.7446 28.4751 12.1436 28.7342C12.5944 29.027 13.1459 29.1749 14.249 29.4705L20.1846 31.0613C21.288 31.357 21.84 31.5045 22.377 31.4764C22.8519 31.4514 23.3165 31.327 23.7402 31.1111C24.2191 30.8671 24.6232 30.4635 25.4307 29.656L29.7754 25.3103C30.5831 24.5026 30.9874 24.0989 31.2314 23.6199C31.4474 23.1961 31.5718 22.7316 31.5967 22.2566C31.6248 21.7197 31.4773 21.1677 31.1816 20.0642L29.5908 14.1297C29.2952 13.0262 29.1473 12.4741 28.8545 12.0232C28.5954 11.6243 28.2554 11.2843 27.8564 11.0252C27.4056 10.7324 26.8541 10.5844 25.751 10.2889L19.8154 8.69803C18.712 8.40237 18.16 8.25486 17.623 8.28299Z" fill="url(#paint0_linear_720_4)"/>
<path d="M16.112 15.8611C16.3976 15.3664 16.5404 15.1191 16.7402 14.9392C16.917 14.7801 17.1252 14.6598 17.3514 14.5863C17.6071 14.5033 17.8927 14.5033 18.4639 14.5033L21.5362 14.5033C22.1073 14.5033 22.3929 14.5033 22.6486 14.5863C22.8748 14.6598 23.0831 14.7801 23.2598 14.9392C23.4596 15.1191 23.6024 15.3664 23.888 15.8611L25.4241 18.5218C25.7097 19.0164 25.8525 19.2638 25.9084 19.5267C25.9579 19.7594 25.9579 19.9998 25.9084 20.2325C25.8525 20.4954 25.7097 20.7428 25.4241 21.2374L23.888 23.8981C23.6024 24.3928 23.4596 24.6401 23.2598 24.82C23.0831 24.9791 22.8748 25.0994 22.6486 25.1729C22.3929 25.2559 22.1073 25.2559 21.5362 25.2559L18.4639 25.2559C17.8927 25.2559 17.6071 25.2559 17.3514 25.1729C17.1252 25.0994 16.917 24.9791 16.7402 24.82C16.5404 24.6401 16.3976 24.3928 16.112 23.8981L14.5759 21.2374C14.2903 20.7428 14.1475 20.4954 14.0916 20.2325C14.0422 19.9998 14.0422 19.7594 14.0916 19.5267C14.1475 19.2638 14.2903 19.0164 14.5759 18.5218L16.112 15.8611Z" fill="url(#paint1_linear_720_4)"/>
<defs>
<linearGradient id="paint0_linear_720_4" x1="3.87109" y1="19.8797" x2="36.1289" y2="19.8797" gradientUnits="userSpaceOnUse">
<stop stop-color="#333333"/>
<stop offset="0.0001" stop-color="#333333"/>
<stop offset="1" stop-color="#585858"/>
</linearGradient>
<linearGradient id="paint1_linear_720_4" x1="15.344" y1="22.5678" x2="24.6561" y2="17.1914" gradientUnits="userSpaceOnUse">
<stop stop-color="#333333"/>
<stop offset="0.0001" stop-color="#333333"/>
<stop offset="1" stop-color="#585858"/>
</linearGradient>
</defs>
</svg>
